<svg width="29" height="30" viewBox="0 0 29 30" fill="none" xmlns="http://www.w3.org/2000/svg">
<g filter="url(#filter0_d_21_3665)">
<path d="M8.76394 16.7446C8.36991 16.2199 7.97587 15.3018 7.1878 14.1214C6.79376 13.4656 5.61166 12.154 5.21762 11.6293C4.95493 11.1047 4.95493 10.8423 5.08627 10.3177C5.21762 9.53074 6.00569 8.87494 6.92511 8.87494C7.58184 8.87494 8.23856 9.39958 8.76394 9.79307C9.02663 10.0554 9.42067 10.58 9.68336 10.8423C9.94605 11.1047 9.94605 11.2358 10.2087 11.4982C10.4714 11.8916 10.6028 12.154 10.4714 11.6293C10.3401 10.9735 10.2087 9.92423 9.94605 8.87494C9.81471 8.08798 9.68336 7.95682 9.55201 7.43218C9.42067 6.77638 9.28933 6.38289 9.15798 5.72709C9.02663 5.33361 8.89529 4.28433 8.76394 3.75968C8.6326 3.10388 8.6326 1.92344 9.15798 1.3988C9.55202 1.00531 10.3401 0.874154 10.8655 1.13647C11.5222 1.52996 11.9162 2.44808 12.0476 2.84156C12.3103 3.49736 12.573 4.41549 12.7043 5.46477C12.967 6.77637 13.361 8.74378 13.361 9.13726C13.361 8.61262 13.2297 7.6945 13.361 7.16986C13.4924 6.77638 13.7551 6.25173 14.2804 6.12057C14.6745 5.98941 15.0685 5.98941 15.4626 5.98941C15.8566 6.12057 16.2506 6.38289 16.5133 6.64521C17.0387 7.43218 17.0387 9.13726 17.0387 9.0061C17.17 8.48146 17.17 7.43218 17.4327 6.90754C17.5641 6.64521 18.0895 6.38289 18.3522 6.25173C18.7462 6.12057 19.2716 6.12057 19.6656 6.25173C19.9283 6.25173 20.4537 6.64521 20.585 6.90754C20.8477 7.30102 20.9791 8.61262 21.1104 9.13726C21.1104 9.26842 21.2417 8.61262 21.5044 8.21914C22.0298 7.43218 23.8687 7.16986 24 9.0061C24 9.92423 24 9.79307 24 10.4489C24 11.1047 24 11.4981 24 12.0228C24 12.5474 23.8687 13.7279 23.7373 14.2525C23.606 14.646 23.2119 15.5641 22.8179 16.0888C22.8179 16.0888 21.3731 17.6627 21.2417 18.4497C21.1104 19.2366 21.1104 19.2366 21.1104 19.7613C21.1104 20.2859 21.2417 20.9417 21.2417 20.9417C21.2417 20.9417 20.191 21.0729 19.6656 20.9417C19.1402 20.8105 18.4835 19.8924 18.3522 19.4989C18.0895 19.1055 17.6954 19.1055 17.4327 19.4989C17.17 20.0236 16.5133 20.9417 15.9879 20.9417C15.0685 21.0729 13.2297 20.9417 11.9162 20.9417C11.9162 20.9417 12.1789 19.6301 11.6535 19.1055C11.2595 18.712 10.6028 18.0562 10.2087 17.6627L8.76394 16.7446Z" fill="white"/>
<path d="M8.76394 16.7446C8.36991 16.2199 7.97587 15.3018 7.1878 14.1214C6.79376 13.4656 5.61166 12.154 5.21762 11.6293C4.95493 11.1047 4.95493 10.8423 5.08627 10.3177C5.21762 9.53074 6.00569 8.87494 6.92511 8.87494C7.58184 8.87494 8.23856 9.39958 8.76394 9.79307C9.02663 10.0554 9.42067 10.58 9.68336 10.8423C9.94605 11.1047 9.94605 11.2358 10.2087 11.4982C10.4714 11.8916 10.6028 12.154 10.4714 11.6293C10.3401 10.9735 10.2087 9.92423 9.94605 8.87494C9.81471 8.08798 9.68336 7.95682 9.55201 7.43218C9.42067 6.77638 9.28933 6.38289 9.15798 5.72709C9.02663 5.33361 8.89529 4.28433 8.76394 3.75968C8.6326 3.10388 8.6326 1.92344 9.15798 1.3988C9.55202 1.00531 10.3401 0.874154 10.8655 1.13647C11.5222 1.52996 11.9162 2.44808 12.0476 2.84156C12.3103 3.49736 12.573 4.41549 12.7043 5.46477C12.967 6.77637 13.361 8.74378 13.361 9.13726C13.361 8.61262 13.2297 7.6945 13.361 7.16986C13.4924 6.77638 13.7551 6.25173 14.2804 6.12057C14.6745 5.98941 15.0685 5.98941 15.4626 5.98941C15.8566 6.12057 16.2506 6.38289 16.5133 6.64521C17.0387 7.43218 17.0387 9.13726 17.0387 9.0061C17.17 8.48146 17.17 7.43218 17.4327 6.90753C17.5641 6.64521 18.0895 6.38289 18.3522 6.25173C18.7462 6.12057 19.2716 6.12057 19.6656 6.25173C19.9283 6.25173 20.4537 6.64521 20.585 6.90753C20.8477 7.30102 20.9791 8.61262 21.1104 9.13726C21.1104 9.26842 21.2417 8.61262 21.5044 8.21914C22.0298 7.43218 23.8687 7.16986 24 9.0061C24 9.92423 24 9.79307 24 10.4489C24 11.1047 24 11.4982 24 12.0228C24 12.5474 23.8687 13.7279 23.7373 14.2525C23.606 14.646 23.2119 15.5641 22.8179 16.0888C22.8179 16.0888 21.3731 17.6627 21.2417 18.4497C21.1104 19.2366 21.1104 19.2366 21.1104 19.7613C21.1104 20.2859 21.2417 20.9417 21.2417 20.9417C21.2417 20.9417 20.191 21.0729 19.6656 20.9417C19.1402 20.8105 18.4835 19.8924 18.3522 19.4989C18.0895 19.1055 17.6954 19.1055 17.4327 19.4989C17.17 20.0236 16.5133 20.9417 15.9879 20.9417C15.0685 21.0729 13.2297 20.9417 11.9162 20.9417C11.9162 20.9417 12.1789 19.6301 11.6535 19.1055C11.2595 18.712 10.6028 18.0562 10.2087 17.6627L8.76394 16.7446Z" stroke="black" stroke-width="1.24395" stroke-linecap="round" stroke-linejoin="round"/>
<path d="M19.6656 17.138V12.6785" stroke="black" stroke-width="1.24395" stroke-linecap="round"/>
<path d="M17.0388 17.138L16.9074 12.6785" stroke="black" stroke-width="1.24395" stroke-linecap="round"/>
<path d="M14.4118 12.6785V17.138" stroke="black" stroke-width="1.24395" stroke-linecap="round"/>
</g>
<defs>
<filter id="filter0_d_21_3665" x="0.378052" y="0.378052" width="28.2439" height="29.244" filterUnits="userSpaceOnUse" color-interpolation-filters="sRGB">
<feFlood flood-opacity="0" result="BackgroundImageFix"/>
<feColorMatrix in="SourceAlpha" type="matrix" values="0 0 0 0 0 0 0 0 0 0 0 0 0 0 0 0 0 0 127 0" result="hardAlpha"/>
<feOffset dy="4"/>
<feGaussianBlur stdDeviation="2"/>
<feColorMatrix type="matrix" values="0 0 0 0 0 0 0 0 0 0 0 0 0 0 0 0 0 0 0.25 0"/>
<feBlend mode="normal" in2="BackgroundImageFix" result="effect1_dropShadow_21_3665"/>
<feBlend mode="normal" in="SourceGraphic" in2="effect1_dropShadow_21_3665" result="shape"/>
</filter>
</defs>
</svg>
